<mxfile host="Electron" modified="2023-05-28T10:02:40.925Z" agent="Mozilla/5.0 (X11; Linux x86_64) AppleWebKit/537.36 (KHTML, like Gecko) draw.io/21.1.2 Chrome/106.0.5249.199 Electron/21.4.3 Safari/537.36" etag="CaNHCO1S5JtuNEWWgMe6" version="21.1.2" type="device">
  <diagram name="PÃ¡gina-1" id="dlTzNig5nCEnXM13r6Za">
    <mxGraphModel dx="860" dy="978" grid="1" gridSize="10" guides="1" tooltips="1" connect="1" arrows="1" fold="1" page="1" pageScale="1" pageWidth="827" pageHeight="1169" math="0" shadow="0">
      <root>
        <mxCell id="0" />
        <mxCell id="1" parent="0" />
        <mxCell id="-CX50zFYLlnde5wQidoN-1" value="" style="rounded=0;whiteSpace=wrap;html=1;strokeWidth=4;strokeColor=#000000;fillColor=#f5f5f5;fontColor=#333333;" parent="1" vertex="1">
          <mxGeometry x="1039" y="162" width="401" height="278" as="geometry" />
        </mxCell>
        <mxCell id="-CX50zFYLlnde5wQidoN-2" value="" style="rounded=0;whiteSpace=wrap;html=1;strokeWidth=4;" parent="1" vertex="1">
          <mxGeometry x="1039" y="162" width="401" height="30" as="geometry" />
        </mxCell>
        <mxCell id="-CX50zFYLlnde5wQidoN-4" value="&lt;font face=&quot;Tahoma&quot; style=&quot;font-size: 21px;&quot;&gt;insertarCliente.fxml&lt;/font&gt;" style="text;html=1;strokeColor=none;fillColor=none;align=center;verticalAlign=middle;whiteSpace=wrap;rounded=0;" parent="1" vertex="1">
          <mxGeometry x="1147" y="126" width="185" height="33" as="geometry" />
        </mxCell>
        <mxCell id="-CX50zFYLlnde5wQidoN-14" value="&lt;font face=&quot;Tahoma&quot; style=&quot;font-size: 21px;&quot;&gt;insertarVehiculo.fxml&lt;/font&gt;" style="text;html=1;strokeColor=none;fillColor=none;align=center;verticalAlign=middle;whiteSpace=wrap;rounded=0;" parent="1" vertex="1">
          <mxGeometry x="1586" y="126" width="195" height="33" as="geometry" />
        </mxCell>
        <mxCell id="-CX50zFYLlnde5wQidoN-27" value="" style="rounded=1;whiteSpace=wrap;html=1;strokeWidth=3;arcSize=4;imageWidth=24;fillColor=#ECE2C6;" parent="1" vertex="1">
          <mxGeometry x="1052" y="206" width="377" height="174" as="geometry" />
        </mxCell>
        <mxCell id="-CX50zFYLlnde5wQidoN-28" value="" style="rounded=1;whiteSpace=wrap;html=1;strokeWidth=3;" parent="1" vertex="1">
          <mxGeometry x="1206" y="216.25" width="183" height="35" as="geometry" />
        </mxCell>
        <mxCell id="-CX50zFYLlnde5wQidoN-29" value="" style="rounded=1;whiteSpace=wrap;html=1;strokeWidth=3;" parent="1" vertex="1">
          <mxGeometry x="1206" y="276.25" width="183" height="35" as="geometry" />
        </mxCell>
        <mxCell id="-CX50zFYLlnde5wQidoN-30" value="" style="rounded=1;whiteSpace=wrap;html=1;strokeWidth=3;" parent="1" vertex="1">
          <mxGeometry x="1206" y="334.75" width="183" height="35" as="geometry" />
        </mxCell>
        <mxCell id="-CX50zFYLlnde5wQidoN-31" value="&lt;font face=&quot;Tahoma&quot; style=&quot;font-size: 21px;&quot;&gt;Nombre:&lt;/font&gt;" style="text;html=1;strokeColor=none;fillColor=none;align=center;verticalAlign=middle;whiteSpace=wrap;rounded=0;fontStyle=1" parent="1" vertex="1">
          <mxGeometry x="1107" y="218.75" width="90" height="30" as="geometry" />
        </mxCell>
        <mxCell id="-CX50zFYLlnde5wQidoN-32" value="&lt;font face=&quot;Tahoma&quot; style=&quot;font-size: 21px;&quot;&gt;DNI:&lt;/font&gt;" style="text;html=1;strokeColor=none;fillColor=none;align=center;verticalAlign=middle;whiteSpace=wrap;rounded=0;fontStyle=1" parent="1" vertex="1">
          <mxGeometry x="1147" y="278.75" width="50" height="30" as="geometry" />
        </mxCell>
        <mxCell id="-CX50zFYLlnde5wQidoN-33" value="&lt;font face=&quot;Tahoma&quot; style=&quot;font-size: 21px;&quot;&gt;Telefono:&lt;/font&gt;" style="text;html=1;strokeColor=none;fillColor=none;align=center;verticalAlign=middle;whiteSpace=wrap;rounded=0;fontStyle=1" parent="1" vertex="1">
          <mxGeometry x="1099" y="337.25" width="97" height="30" as="geometry" />
        </mxCell>
        <mxCell id="-CX50zFYLlnde5wQidoN-34" value="" style="rounded=1;whiteSpace=wrap;html=1;strokeWidth=3;arcSize=6;imageWidth=24;fillColor=#6cb499;imageHeight=24;" parent="1" vertex="1">
          <mxGeometry x="1139" y="396" width="88" height="30" as="geometry" />
        </mxCell>
        <mxCell id="-CX50zFYLlnde5wQidoN-35" value="" style="rounded=1;whiteSpace=wrap;html=1;strokeWidth=3;arcSize=6;imageWidth=24;fillColor=#b46c6c;imageHeight=24;" parent="1" vertex="1">
          <mxGeometry x="1250" y="395" width="88" height="30" as="geometry" />
        </mxCell>
        <mxCell id="-CX50zFYLlnde5wQidoN-36" value="" style="rounded=1;whiteSpace=wrap;html=1;strokeWidth=3;arcSize=6;imageWidth=24;fillColor=#969696;imageHeight=24;gradientColor=none;" parent="1" vertex="1">
          <mxGeometry x="1378" y="395" width="28" height="30" as="geometry" />
        </mxCell>
        <mxCell id="-CX50zFYLlnde5wQidoN-37" value="&lt;font face=&quot;Tahoma&quot; style=&quot;font-size: 18px;&quot;&gt;Aceptar&lt;/font&gt;" style="text;html=1;strokeColor=none;fillColor=none;align=center;verticalAlign=middle;whiteSpace=wrap;rounded=0;fontStyle=1;fontSize=18;" parent="1" vertex="1">
          <mxGeometry x="1143" y="397" width="80" height="30" as="geometry" />
        </mxCell>
        <mxCell id="-CX50zFYLlnde5wQidoN-38" value="&lt;font face=&quot;Tahoma&quot; style=&quot;font-size: 18px;&quot;&gt;Cancelar&lt;/font&gt;" style="text;html=1;strokeColor=none;fillColor=none;align=center;verticalAlign=middle;whiteSpace=wrap;rounded=0;fontStyle=1;fontSize=18;" parent="1" vertex="1">
          <mxGeometry x="1253" y="396" width="80" height="30" as="geometry" />
        </mxCell>
        <mxCell id="-CX50zFYLlnde5wQidoN-39" value="" style="shape=image;verticalLabelPosition=bottom;labelBackgroundColor=default;verticalAlign=top;aspect=fixed;imageAspect=0;image=data:image/png,iVBORw0KGgoAAAANSUhEUgAAAD8AAABHCAMAAACH8G9BAAAAIGNIUk0AAHomAACAhAAA+gAAAIDoAAB1MAAA6mAAADqYAAAXcJy6UTwAAALTUExURQAAACoqKh8hKh8hKx8hKx8hKx4gKx4jKx0iKh8fKx8gKh8hKh8fLB8fKR8hKh8fKiMjKx4hKh8hKx4iKR8gKh4gKx4hKiAgLR8hKxskLR4gKx4gKhsiKR4gKh4gKx4hKx4hKx8gKx8gKh4hKh8gKx8gKx8hKx4gKh4hKh8iKh8fKx0hLB4hKR4eKB8fKSIiKhkZMxwcOB8hKh4gKx4gKh8hKx4hKh8gKh4hKx4gKx4gKyEhKh8fLB8gKh4gKyAgKSAgKR8hKh4gKh8gKh8hK1JTaZGRuKOjzVFSaUlLXiQmMZOTuZSVuyUmMmZngjI0Q0VGWkVHWpSUu0RGWW14nneDrSotPGx2nSouO213nWZwlDE0RWVvk2RvkjE1RWZvk19pijc8T15niDg9UF9oilhhgD5EWlhgfmFqjUhPZ1JadkVMY1BYdVFZdUtSbEtSbUpRa05WckRKYlNbd0NJYExTbllhgD1DWFligT1CVz1DVzc7TmBqizY6TTA0RGdxlS4zQnZeejUoM3VbdXZeeS80RCksOm14oCgrOTQoMsJOXshPXzQnMnNYcMlQX8FOXTUnM255nykrOSIlL3SAqSEkL8VPX/FbbM5RYTYoNHWAqXN/qCQlMXN+pnVceDMnMstRYXNYcSMmMnN+qCktO2x3nNFSYjYnMnNWb3RZcsxRYM9RYjUoMj5DWVdgfz9EWVhhf1FXdEZMY0pRakxTbVNbeFlhgT1CVnRZczU6THNac9ZTZNdUY3ZZci8yQmhxliksONRUY3VXb3J/p9NTY3RYcGVwk3VadMxRYV9oiXRadEtSa3NZcklQaVdffmdylj9GW2dwlC8zQ3Rac3NZc215nyIkL75NXMROXsNOXbxMWyMmMHdhfDsqNjoqNnZdeHVddzYpNHdgfTA1RTc8TlFYdUNJYTk+UmlzmVxlhTk+USQmMnR/qUJJYEJIX2NtkP///856TnAAAABEdFJOUwAGiebliIc6PCmjoihJ9Ugd76pDrPKuJ+0c8fAl4uHPzru6p5STgG1sWVhFRDIxHgoJ9qZ/klXLyPn4NlH0808f3frcDHOzcwAAAAFiS0dE8DW471QAAAAJcEhZcwAACxMAAAsTAQCanBgAAAAHdElNRQfnBQoMDQY1H8ySAAAAAW9yTlQBz6J3mgAAA+lJREFUWMO1l/lbVFUYxw8BUUYGOKyRLSyappSJrZrZGxNF4sIL2mKlYTqElVFiLtXQAjGksQ3F5lZqJVG0WJhKAaVomllqLkVFFC38C957zwXP5sMZ1O8P85znnvl8Z86Z87n3GUJOE7/z/MFOQKAf8TmBwOR83/kACOobXgABvvMA6vG54y8c4g8a8b8oWIlfPFSHNjP0EgUeEgp3pjg1knIXhIbIfBik6tBmUiFMwofB3ffo8mn3ArOCEEe4taqpurjTOdUCwiMiTTxKd9vSnc504yX91JWoaEIcMC1N/5O5ZUw39yEcBok7nTMg5gz5SwmJgOkzBonPBAchkdr7Jycq1vgBosNiBkfHOGL7zsBlkIGZWaiZrFk4G4azp+9yuA/vf0CXf3AOPgRXsPyV8DA+MleXnzsPH4WrWD4OsnH+Y7r8goWYDXEsHw8uzHlclzeSCwksnwiL8IkndeGnXLgIEll+BCzGp/N0+WeexcUwkuWvhiWYv9SH7/8cjGL50bAMl6/wgV8B17D8GFiJz79gzbzodheomQK3+yVrsCwDX4axLJ8Er+CrhdZk0WvFnhIVXuJ5fdVqa1T4BpYCdwu9FsqwvMKadFd6q1QFJZ4qb+Wb1rDiLSyD67jb5zioxppac7Kufo1RsFbE1xr4mvo6c1i7DtfDOP72awq04W26TKPgnY2beHyz513ve+/TVlkfXiBFAYsr9BEEkgo4XKEPFWhLv0BCAY9jwwfYCNfzvCAQVyDg+OFHoj6yQEyBiGPTx6I+CoH6CyQc8z4R9aECffoZygUyjkvzRX2UAm21DpJ1bLZyE58vF/XhBOrPF0ZB8zYD/5K/vn2HqI8t0E4UC1q83hYRV+jDCcSe+Wavt9nzlXC5olzSxxboawGv8ra2GnvAF6j04QSy02ZtnbWJbez1rExZH1ugduZt9Idr+6b+W0EmlT62QLskHFEqUOkjCnQKR9wtFDTMl/WhAjU1KnCpwNDHBfEibwqESlwsMPTpgPEibwrUlz08LhTs/U7WhwrE4ZwywhIkfahA+/afBhcLJH2oQN8fMOYKrGPzg3Bm8aB1kOwnk6QPFejHUmOuqFiF04Ji+vyR9bEF+smYcx86rMLNgiM/0+ePQh8q0NH1iMeOn/gFlfm1s/M3a6DQxxZoNupEoQ8V6Pd2LV6hDxXoj11avEIfW6BGLV6hDyEJkIs5XVp8FyTLvPUE6tDiFfpQgVx/avEKfQiZAN34199afA9MkPlg+OdfLRqrayBW5skN8J8e/z/cqMBJ0E3Q3Vs94If39sDNt6h4cutEvf8tk24j6kyOv33KQPCUO5KTyFnMSTK3k+WqnQ5fAAAAJXRFWHRkYXRlOmNyZWF0ZQAyMDIzLTA1LTEwVDEyOjEyOjI4KzAwOjAwxSqfkQAAACV0RVh0ZGF0ZTptb2RpZnkAMjAyMy0wNS0xMFQxMjoxMjoyOCswMDowMLR3Jy0AAAAodEVYdGRhdGU6dGltZXN0YW1wADIwMjMtMDUtMTBUMTI6MTM6MDYrMDA6MDAeuhHsAAAAAElFTkSuQmCC;" parent="1" vertex="1">
          <mxGeometry x="1381.82" y="398" width="22.18" height="25" as="geometry" />
        </mxCell>
        <mxCell id="q8AWcnEUlix8Nl2i11DQ-1" value="&lt;font face=&quot;Tahoma&quot; style=&quot;font-size: 21px;&quot;&gt;insertarAlquiler.fxml&lt;/font&gt;" style="text;html=1;strokeColor=none;fillColor=none;align=center;verticalAlign=middle;whiteSpace=wrap;rounded=0;" parent="1" vertex="1">
          <mxGeometry x="1082.5" y="450" width="195" height="33" as="geometry" />
        </mxCell>
        <mxCell id="q8AWcnEUlix8Nl2i11DQ-2" value="" style="rounded=0;whiteSpace=wrap;html=1;strokeWidth=4;strokeColor=#000000;fillColor=#f5f5f5;fontColor=#333333;" parent="1" vertex="1">
          <mxGeometry x="1483" y="162" width="401" height="528" as="geometry" />
        </mxCell>
        <mxCell id="q8AWcnEUlix8Nl2i11DQ-3" value="" style="rounded=0;whiteSpace=wrap;html=1;strokeWidth=4;" parent="1" vertex="1">
          <mxGeometry x="1482" y="162" width="401" height="30" as="geometry" />
        </mxCell>
        <mxCell id="q8AWcnEUlix8Nl2i11DQ-5" value="" style="rounded=1;whiteSpace=wrap;html=1;strokeWidth=3;arcSize=3;imageWidth=24;fillColor=#ECE2C6;imageHeight=24;" parent="1" vertex="1">
          <mxGeometry x="1494" y="260" width="377" height="370" as="geometry" />
        </mxCell>
        <mxCell id="q8AWcnEUlix8Nl2i11DQ-6" value="" style="rounded=1;whiteSpace=wrap;html=1;strokeWidth=3;" parent="1" vertex="1">
          <mxGeometry x="1658" y="280" width="183" height="35" as="geometry" />
        </mxCell>
        <mxCell id="q8AWcnEUlix8Nl2i11DQ-7" value="" style="rounded=1;whiteSpace=wrap;html=1;strokeWidth=3;" parent="1" vertex="1">
          <mxGeometry x="1658" y="340" width="183" height="35" as="geometry" />
        </mxCell>
        <mxCell id="q8AWcnEUlix8Nl2i11DQ-8" value="" style="rounded=1;whiteSpace=wrap;html=1;strokeWidth=3;" parent="1" vertex="1">
          <mxGeometry x="1658" y="398.5" width="183" height="35" as="geometry" />
        </mxCell>
        <mxCell id="q8AWcnEUlix8Nl2i11DQ-9" value="&lt;font face=&quot;Tahoma&quot; style=&quot;font-size: 21px;&quot;&gt;Marca:&lt;/font&gt;" style="text;html=1;strokeColor=none;fillColor=none;align=center;verticalAlign=middle;whiteSpace=wrap;rounded=0;fontStyle=1" parent="1" vertex="1">
          <mxGeometry x="1581" y="282.5" width="68" height="30" as="geometry" />
        </mxCell>
        <mxCell id="q8AWcnEUlix8Nl2i11DQ-10" value="&lt;font face=&quot;Tahoma&quot; style=&quot;font-size: 21px;&quot;&gt;Modelo:&lt;/font&gt;" style="text;html=1;strokeColor=none;fillColor=none;align=center;verticalAlign=middle;whiteSpace=wrap;rounded=0;fontStyle=1" parent="1" vertex="1">
          <mxGeometry x="1571" y="342.5" width="78" height="30" as="geometry" />
        </mxCell>
        <mxCell id="q8AWcnEUlix8Nl2i11DQ-11" value="&lt;font face=&quot;Tahoma&quot; style=&quot;font-size: 21px;&quot;&gt;Matricula:&lt;/font&gt;" style="text;html=1;strokeColor=none;fillColor=none;align=center;verticalAlign=middle;whiteSpace=wrap;rounded=0;fontStyle=1" parent="1" vertex="1">
          <mxGeometry x="1551" y="401" width="97" height="30" as="geometry" />
        </mxCell>
        <mxCell id="q8AWcnEUlix8Nl2i11DQ-12" value="" style="rounded=1;whiteSpace=wrap;html=1;strokeWidth=3;arcSize=6;imageWidth=24;fillColor=#6cb499;imageHeight=24;" parent="1" vertex="1">
          <mxGeometry x="1582" y="645" width="88" height="30" as="geometry" />
        </mxCell>
        <mxCell id="q8AWcnEUlix8Nl2i11DQ-13" value="" style="rounded=1;whiteSpace=wrap;html=1;strokeWidth=3;arcSize=6;imageWidth=24;fillColor=#b46c6c;imageHeight=24;" parent="1" vertex="1">
          <mxGeometry x="1693" y="644" width="88" height="30" as="geometry" />
        </mxCell>
        <mxCell id="q8AWcnEUlix8Nl2i11DQ-14" value="" style="rounded=1;whiteSpace=wrap;html=1;strokeWidth=3;arcSize=6;imageWidth=24;fillColor=#969696;imageHeight=24;gradientColor=none;" parent="1" vertex="1">
          <mxGeometry x="1821" y="644" width="28" height="30" as="geometry" />
        </mxCell>
        <mxCell id="q8AWcnEUlix8Nl2i11DQ-15" value="&lt;font face=&quot;Tahoma&quot; style=&quot;font-size: 18px;&quot;&gt;Aceptar&lt;/font&gt;" style="text;html=1;strokeColor=none;fillColor=none;align=center;verticalAlign=middle;whiteSpace=wrap;rounded=0;fontStyle=1;fontSize=18;" parent="1" vertex="1">
          <mxGeometry x="1586" y="646" width="80" height="30" as="geometry" />
        </mxCell>
        <mxCell id="q8AWcnEUlix8Nl2i11DQ-16" value="&lt;font face=&quot;Tahoma&quot; style=&quot;font-size: 18px;&quot;&gt;Cancelar&lt;/font&gt;" style="text;html=1;strokeColor=none;fillColor=none;align=center;verticalAlign=middle;whiteSpace=wrap;rounded=0;fontStyle=1;fontSize=18;" parent="1" vertex="1">
          <mxGeometry x="1696" y="645" width="80" height="30" as="geometry" />
        </mxCell>
        <mxCell id="q8AWcnEUlix8Nl2i11DQ-17" value="" style="shape=image;verticalLabelPosition=bottom;labelBackgroundColor=default;verticalAlign=top;aspect=fixed;imageAspect=0;image=data:image/png,iVBORw0KGgoAAAANSUhEUgAAAD8AAABHCAMAAACH8G9BAAAAIGNIUk0AAHomAACAhAAA+gAAAIDoAAB1MAAA6mAAADqYAAAXcJy6UTwAAALTUExURQAAACoqKh8hKh8hKx8hKx8hKx4gKx4jKx0iKh8fKx8gKh8hKh8fLB8fKR8hKh8fKiMjKx4hKh8hKx4iKR8gKh4gKx4hKiAgLR8hKxskLR4gKx4gKhsiKR4gKh4gKx4hKx4hKx8gKx8gKh4hKh8gKx8gKx8hKx4gKh4hKh8iKh8fKx0hLB4hKR4eKB8fKSIiKhkZMxwcOB8hKh4gKx4gKh8hKx4hKh8gKh4hKx4gKx4gKyEhKh8fLB8gKh4gKyAgKSAgKR8hKh4gKh8gKh8hK1JTaZGRuKOjzVFSaUlLXiQmMZOTuZSVuyUmMmZngjI0Q0VGWkVHWpSUu0RGWW14nneDrSotPGx2nSouO213nWZwlDE0RWVvk2RvkjE1RWZvk19pijc8T15niDg9UF9oilhhgD5EWlhgfmFqjUhPZ1JadkVMY1BYdVFZdUtSbEtSbUpRa05WckRKYlNbd0NJYExTbllhgD1DWFligT1CVz1DVzc7TmBqizY6TTA0RGdxlS4zQnZeejUoM3VbdXZeeS80RCksOm14oCgrOTQoMsJOXshPXzQnMnNYcMlQX8FOXTUnM255nykrOSIlL3SAqSEkL8VPX/FbbM5RYTYoNHWAqXN/qCQlMXN+pnVceDMnMstRYXNYcSMmMnN+qCktO2x3nNFSYjYnMnNWb3RZcsxRYM9RYjUoMj5DWVdgfz9EWVhhf1FXdEZMY0pRakxTbVNbeFlhgT1CVnRZczU6THNac9ZTZNdUY3ZZci8yQmhxliksONRUY3VXb3J/p9NTY3RYcGVwk3VadMxRYV9oiXRadEtSa3NZcklQaVdffmdylj9GW2dwlC8zQ3Rac3NZc215nyIkL75NXMROXsNOXbxMWyMmMHdhfDsqNjoqNnZdeHVddzYpNHdgfTA1RTc8TlFYdUNJYTk+UmlzmVxlhTk+USQmMnR/qUJJYEJIX2NtkP///856TnAAAABEdFJOUwAGiebliIc6PCmjoihJ9Ugd76pDrPKuJ+0c8fAl4uHPzru6p5STgG1sWVhFRDIxHgoJ9qZ/klXLyPn4NlH0808f3frcDHOzcwAAAAFiS0dE8DW471QAAAAJcEhZcwAACxMAAAsTAQCanBgAAAAHdElNRQfnBQoMDQY1H8ySAAAAAW9yTlQBz6J3mgAAA+lJREFUWMO1l/lbVFUYxw8BUUYGOKyRLSyappSJrZrZGxNF4sIL2mKlYTqElVFiLtXQAjGksQ3F5lZqJVG0WJhKAaVomllqLkVFFC38C957zwXP5sMZ1O8P85znnvl8Z86Z87n3GUJOE7/z/MFOQKAf8TmBwOR83/kACOobXgABvvMA6vG54y8c4g8a8b8oWIlfPFSHNjP0EgUeEgp3pjg1knIXhIbIfBik6tBmUiFMwofB3ffo8mn3ArOCEEe4taqpurjTOdUCwiMiTTxKd9vSnc504yX91JWoaEIcMC1N/5O5ZUw39yEcBok7nTMg5gz5SwmJgOkzBonPBAchkdr7Jycq1vgBosNiBkfHOGL7zsBlkIGZWaiZrFk4G4azp+9yuA/vf0CXf3AOPgRXsPyV8DA+MleXnzsPH4WrWD4OsnH+Y7r8goWYDXEsHw8uzHlclzeSCwksnwiL8IkndeGnXLgIEll+BCzGp/N0+WeexcUwkuWvhiWYv9SH7/8cjGL50bAMl6/wgV8B17D8GFiJz79gzbzodheomQK3+yVrsCwDX4axLJ8Er+CrhdZk0WvFnhIVXuJ5fdVqa1T4BpYCdwu9FsqwvMKadFd6q1QFJZ4qb+Wb1rDiLSyD67jb5zioxppac7Kufo1RsFbE1xr4mvo6c1i7DtfDOP72awq04W26TKPgnY2beHyz513ve+/TVlkfXiBFAYsr9BEEkgo4XKEPFWhLv0BCAY9jwwfYCNfzvCAQVyDg+OFHoj6yQEyBiGPTx6I+CoH6CyQc8z4R9aECffoZygUyjkvzRX2UAm21DpJ1bLZyE58vF/XhBOrPF0ZB8zYD/5K/vn2HqI8t0E4UC1q83hYRV+jDCcSe+Wavt9nzlXC5olzSxxboawGv8ra2GnvAF6j04QSy02ZtnbWJbez1rExZH1ugduZt9Idr+6b+W0EmlT62QLskHFEqUOkjCnQKR9wtFDTMl/WhAjU1KnCpwNDHBfEibwqESlwsMPTpgPEibwrUlz08LhTs/U7WhwrE4ZwywhIkfahA+/afBhcLJH2oQN8fMOYKrGPzg3Bm8aB1kOwnk6QPFejHUmOuqFiF04Ji+vyR9bEF+smYcx86rMLNgiM/0+ePQh8q0NH1iMeOn/gFlfm1s/M3a6DQxxZoNupEoQ8V6Pd2LV6hDxXoj11avEIfW6BGLV6hDyEJkIs5XVp8FyTLvPUE6tDiFfpQgVx/avEKfQiZAN34199afA9MkPlg+OdfLRqrayBW5skN8J8e/z/cqMBJ0E3Q3Vs94If39sDNt6h4cutEvf8tk24j6kyOv33KQPCUO5KTyFnMSTK3k+WqnQ5fAAAAJXRFWHRkYXRlOmNyZWF0ZQAyMDIzLTA1LTEwVDEyOjEyOjI4KzAwOjAwxSqfkQAAACV0RVh0ZGF0ZTptb2RpZnkAMjAyMy0wNS0xMFQxMjoxMjoyOCswMDowMLR3Jy0AAAAodEVYdGRhdGU6dGltZXN0YW1wADIwMjMtMDUtMTBUMTI6MTM6MDYrMDA6MDAeuhHsAAAAAElFTkSuQmCC;" parent="1" vertex="1">
          <mxGeometry x="1824.82" y="647" width="22.18" height="25" as="geometry" />
        </mxCell>
        <mxCell id="q8AWcnEUlix8Nl2i11DQ-18" value="" style="rounded=1;whiteSpace=wrap;html=1;strokeWidth=3;" parent="1" vertex="1">
          <mxGeometry x="1658" y="458.75" width="183" height="35" as="geometry" />
        </mxCell>
        <mxCell id="q8AWcnEUlix8Nl2i11DQ-19" value="" style="rounded=1;whiteSpace=wrap;html=1;strokeWidth=3;" parent="1" vertex="1">
          <mxGeometry x="1658" y="518.75" width="183" height="35" as="geometry" />
        </mxCell>
        <mxCell id="q8AWcnEUlix8Nl2i11DQ-20" value="" style="rounded=1;whiteSpace=wrap;html=1;strokeWidth=3;" parent="1" vertex="1">
          <mxGeometry x="1658" y="577.25" width="183" height="35" as="geometry" />
        </mxCell>
        <mxCell id="q8AWcnEUlix8Nl2i11DQ-21" value="&lt;font face=&quot;Tahoma&quot; style=&quot;font-size: 21px;&quot;&gt;Cilindradas:&lt;/font&gt;" style="text;html=1;strokeColor=none;fillColor=none;align=center;verticalAlign=middle;whiteSpace=wrap;rounded=0;fontStyle=1" parent="1" vertex="1">
          <mxGeometry x="1531" y="461.25" width="118" height="30" as="geometry" />
        </mxCell>
        <mxCell id="q8AWcnEUlix8Nl2i11DQ-22" value="&lt;font face=&quot;Tahoma&quot; style=&quot;font-size: 21px;&quot;&gt;Plazas:&lt;/font&gt;" style="text;html=1;strokeColor=none;fillColor=none;align=center;verticalAlign=middle;whiteSpace=wrap;rounded=0;fontStyle=1" parent="1" vertex="1">
          <mxGeometry x="1581" y="521.25" width="68" height="30" as="geometry" />
        </mxCell>
        <mxCell id="q8AWcnEUlix8Nl2i11DQ-23" value="&lt;font face=&quot;Tahoma&quot; style=&quot;font-size: 21px;&quot;&gt;PMA:&lt;/font&gt;" style="text;html=1;strokeColor=none;fillColor=none;align=center;verticalAlign=middle;whiteSpace=wrap;rounded=0;fontStyle=1" parent="1" vertex="1">
          <mxGeometry x="1601" y="579.75" width="47" height="30" as="geometry" />
        </mxCell>
        <mxCell id="q8AWcnEUlix8Nl2i11DQ-25" value="" style="rounded=1;whiteSpace=wrap;html=1;strokeWidth=3;fillColor=#CFCFCF;" parent="1" vertex="1">
          <mxGeometry x="1658" y="204.75" width="154" height="44" as="geometry" />
        </mxCell>
        <mxCell id="q8AWcnEUlix8Nl2i11DQ-26" value="&lt;font face=&quot;Tahoma&quot; style=&quot;font-size: 21px;&quot;&gt;Tipo Vehiculo:&lt;/font&gt;" style="text;html=1;strokeColor=none;fillColor=none;align=center;verticalAlign=middle;whiteSpace=wrap;rounded=0;fontStyle=1" parent="1" vertex="1">
          <mxGeometry x="1498" y="211.75" width="157" height="30" as="geometry" />
        </mxCell>
        <mxCell id="q8AWcnEUlix8Nl2i11DQ-27" value="" style="triangle;whiteSpace=wrap;html=1;fillColor=#000000;rotation=90;" parent="1" vertex="1">
          <mxGeometry x="1791.07" y="223.69" width="6" height="8.75" as="geometry" />
        </mxCell>
        <mxCell id="q8AWcnEUlix8Nl2i11DQ-28" value="" style="rounded=0;whiteSpace=wrap;html=1;strokeWidth=4;strokeColor=#000000;fillColor=#f5f5f5;fontColor=#333333;" parent="1" vertex="1">
          <mxGeometry x="920" y="483" width="520" height="278" as="geometry" />
        </mxCell>
        <mxCell id="q8AWcnEUlix8Nl2i11DQ-29" value="" style="rounded=0;whiteSpace=wrap;html=1;strokeWidth=4;" parent="1" vertex="1">
          <mxGeometry x="920" y="483" width="520" height="30" as="geometry" />
        </mxCell>
        <mxCell id="q8AWcnEUlix8Nl2i11DQ-31" value="" style="rounded=1;whiteSpace=wrap;html=1;strokeWidth=3;arcSize=4;imageWidth=24;fillColor=#ECE2C6;" parent="1" vertex="1">
          <mxGeometry x="932" y="527" width="497" height="174" as="geometry" />
        </mxCell>
        <mxCell id="q8AWcnEUlix8Nl2i11DQ-32" value="" style="rounded=1;whiteSpace=wrap;html=1;strokeWidth=3;" parent="1" vertex="1">
          <mxGeometry x="1180" y="537.25" width="183" height="35" as="geometry" />
        </mxCell>
        <mxCell id="q8AWcnEUlix8Nl2i11DQ-33" value="" style="rounded=1;whiteSpace=wrap;html=1;strokeWidth=3;" parent="1" vertex="1">
          <mxGeometry x="1180" y="597.25" width="183" height="35" as="geometry" />
        </mxCell>
        <mxCell id="q8AWcnEUlix8Nl2i11DQ-34" value="" style="rounded=1;whiteSpace=wrap;html=1;strokeWidth=3;" parent="1" vertex="1">
          <mxGeometry x="1180" y="655.75" width="183" height="35" as="geometry" />
        </mxCell>
        <mxCell id="q8AWcnEUlix8Nl2i11DQ-35" value="&lt;font face=&quot;Tahoma&quot; style=&quot;font-size: 21px;&quot;&gt;Matricula:&lt;/font&gt;" style="text;html=1;strokeColor=none;fillColor=none;align=center;verticalAlign=middle;whiteSpace=wrap;rounded=0;fontStyle=1" parent="1" vertex="1">
          <mxGeometry x="1050" y="599.25" width="114" height="30" as="geometry" />
        </mxCell>
        <mxCell id="q8AWcnEUlix8Nl2i11DQ-36" value="&lt;font face=&quot;Tahoma&quot; style=&quot;font-size: 21px;&quot;&gt;DNI:&lt;/font&gt;" style="text;html=1;strokeColor=none;fillColor=none;align=center;verticalAlign=middle;whiteSpace=wrap;rounded=0;fontStyle=1" parent="1" vertex="1">
          <mxGeometry x="1111" y="539.75" width="50" height="30" as="geometry" />
        </mxCell>
        <mxCell id="q8AWcnEUlix8Nl2i11DQ-37" value="&lt;font face=&quot;Tahoma&quot; style=&quot;font-size: 21px;&quot;&gt;Fecha de Alquiler:&lt;/font&gt;" style="text;html=1;strokeColor=none;fillColor=none;align=center;verticalAlign=middle;whiteSpace=wrap;rounded=0;fontStyle=1" parent="1" vertex="1">
          <mxGeometry x="960" y="658.25" width="210" height="30" as="geometry" />
        </mxCell>
        <mxCell id="q8AWcnEUlix8Nl2i11DQ-38" value="" style="rounded=1;whiteSpace=wrap;html=1;strokeWidth=3;arcSize=6;imageWidth=24;fillColor=#6cb499;imageHeight=24;" parent="1" vertex="1">
          <mxGeometry x="1080" y="718" width="88" height="30" as="geometry" />
        </mxCell>
        <mxCell id="q8AWcnEUlix8Nl2i11DQ-39" value="" style="rounded=1;whiteSpace=wrap;html=1;strokeWidth=3;arcSize=6;imageWidth=24;fillColor=#b46c6c;imageHeight=24;" parent="1" vertex="1">
          <mxGeometry x="1191" y="717" width="88" height="30" as="geometry" />
        </mxCell>
        <mxCell id="q8AWcnEUlix8Nl2i11DQ-40" value="" style="rounded=1;whiteSpace=wrap;html=1;strokeWidth=3;arcSize=6;imageWidth=24;fillColor=#969696;imageHeight=24;gradientColor=none;" parent="1" vertex="1">
          <mxGeometry x="1390" y="716" width="28" height="30" as="geometry" />
        </mxCell>
        <mxCell id="q8AWcnEUlix8Nl2i11DQ-41" value="&lt;font face=&quot;Tahoma&quot; style=&quot;font-size: 18px;&quot;&gt;Aceptar&lt;/font&gt;" style="text;html=1;strokeColor=none;fillColor=none;align=center;verticalAlign=middle;whiteSpace=wrap;rounded=0;fontStyle=1;fontSize=18;" parent="1" vertex="1">
          <mxGeometry x="1084" y="719" width="80" height="30" as="geometry" />
        </mxCell>
        <mxCell id="q8AWcnEUlix8Nl2i11DQ-42" value="&lt;font face=&quot;Tahoma&quot; style=&quot;font-size: 18px;&quot;&gt;Cancelar&lt;/font&gt;" style="text;html=1;strokeColor=none;fillColor=none;align=center;verticalAlign=middle;whiteSpace=wrap;rounded=0;fontStyle=1;fontSize=18;" parent="1" vertex="1">
          <mxGeometry x="1194" y="718" width="80" height="30" as="geometry" />
        </mxCell>
        <mxCell id="q8AWcnEUlix8Nl2i11DQ-43" value="" style="shape=image;verticalLabelPosition=bottom;labelBackgroundColor=default;verticalAlign=top;aspect=fixed;imageAspect=0;image=data:image/png,iVBORw0KGgoAAAANSUhEUgAAAD8AAABHCAMAAACH8G9BAAAAIGNIUk0AAHomAACAhAAA+gAAAIDoAAB1MAAA6mAAADqYAAAXcJy6UTwAAALTUExURQAAACoqKh8hKh8hKx8hKx8hKx4gKx4jKx0iKh8fKx8gKh8hKh8fLB8fKR8hKh8fKiMjKx4hKh8hKx4iKR8gKh4gKx4hKiAgLR8hKxskLR4gKx4gKhsiKR4gKh4gKx4hKx4hKx8gKx8gKh4hKh8gKx8gKx8hKx4gKh4hKh8iKh8fKx0hLB4hKR4eKB8fKSIiKhkZMxwcOB8hKh4gKx4gKh8hKx4hKh8gKh4hKx4gKx4gKyEhKh8fLB8gKh4gKyAgKSAgKR8hKh4gKh8gKh8hK1JTaZGRuKOjzVFSaUlLXiQmMZOTuZSVuyUmMmZngjI0Q0VGWkVHWpSUu0RGWW14nneDrSotPGx2nSouO213nWZwlDE0RWVvk2RvkjE1RWZvk19pijc8T15niDg9UF9oilhhgD5EWlhgfmFqjUhPZ1JadkVMY1BYdVFZdUtSbEtSbUpRa05WckRKYlNbd0NJYExTbllhgD1DWFligT1CVz1DVzc7TmBqizY6TTA0RGdxlS4zQnZeejUoM3VbdXZeeS80RCksOm14oCgrOTQoMsJOXshPXzQnMnNYcMlQX8FOXTUnM255nykrOSIlL3SAqSEkL8VPX/FbbM5RYTYoNHWAqXN/qCQlMXN+pnVceDMnMstRYXNYcSMmMnN+qCktO2x3nNFSYjYnMnNWb3RZcsxRYM9RYjUoMj5DWVdgfz9EWVhhf1FXdEZMY0pRakxTbVNbeFlhgT1CVnRZczU6THNac9ZTZNdUY3ZZci8yQmhxliksONRUY3VXb3J/p9NTY3RYcGVwk3VadMxRYV9oiXRadEtSa3NZcklQaVdffmdylj9GW2dwlC8zQ3Rac3NZc215nyIkL75NXMROXsNOXbxMWyMmMHdhfDsqNjoqNnZdeHVddzYpNHdgfTA1RTc8TlFYdUNJYTk+UmlzmVxlhTk+USQmMnR/qUJJYEJIX2NtkP///856TnAAAABEdFJOUwAGiebliIc6PCmjoihJ9Ugd76pDrPKuJ+0c8fAl4uHPzru6p5STgG1sWVhFRDIxHgoJ9qZ/klXLyPn4NlH0808f3frcDHOzcwAAAAFiS0dE8DW471QAAAAJcEhZcwAACxMAAAsTAQCanBgAAAAHdElNRQfnBQoMDQY1H8ySAAAAAW9yTlQBz6J3mgAAA+lJREFUWMO1l/lbVFUYxw8BUUYGOKyRLSyappSJrZrZGxNF4sIL2mKlYTqElVFiLtXQAjGksQ3F5lZqJVG0WJhKAaVomllqLkVFFC38C957zwXP5sMZ1O8P85znnvl8Z86Z87n3GUJOE7/z/MFOQKAf8TmBwOR83/kACOobXgABvvMA6vG54y8c4g8a8b8oWIlfPFSHNjP0EgUeEgp3pjg1knIXhIbIfBik6tBmUiFMwofB3ffo8mn3ArOCEEe4taqpurjTOdUCwiMiTTxKd9vSnc504yX91JWoaEIcMC1N/5O5ZUw39yEcBok7nTMg5gz5SwmJgOkzBonPBAchkdr7Jycq1vgBosNiBkfHOGL7zsBlkIGZWaiZrFk4G4azp+9yuA/vf0CXf3AOPgRXsPyV8DA+MleXnzsPH4WrWD4OsnH+Y7r8goWYDXEsHw8uzHlclzeSCwksnwiL8IkndeGnXLgIEll+BCzGp/N0+WeexcUwkuWvhiWYv9SH7/8cjGL50bAMl6/wgV8B17D8GFiJz79gzbzodheomQK3+yVrsCwDX4axLJ8Er+CrhdZk0WvFnhIVXuJ5fdVqa1T4BpYCdwu9FsqwvMKadFd6q1QFJZ4qb+Wb1rDiLSyD67jb5zioxppac7Kufo1RsFbE1xr4mvo6c1i7DtfDOP72awq04W26TKPgnY2beHyz513ve+/TVlkfXiBFAYsr9BEEkgo4XKEPFWhLv0BCAY9jwwfYCNfzvCAQVyDg+OFHoj6yQEyBiGPTx6I+CoH6CyQc8z4R9aECffoZygUyjkvzRX2UAm21DpJ1bLZyE58vF/XhBOrPF0ZB8zYD/5K/vn2HqI8t0E4UC1q83hYRV+jDCcSe+Wavt9nzlXC5olzSxxboawGv8ra2GnvAF6j04QSy02ZtnbWJbez1rExZH1ugduZt9Idr+6b+W0EmlT62QLskHFEqUOkjCnQKR9wtFDTMl/WhAjU1KnCpwNDHBfEibwqESlwsMPTpgPEibwrUlz08LhTs/U7WhwrE4ZwywhIkfahA+/afBhcLJH2oQN8fMOYKrGPzg3Bm8aB1kOwnk6QPFejHUmOuqFiF04Ji+vyR9bEF+smYcx86rMLNgiM/0+ePQh8q0NH1iMeOn/gFlfm1s/M3a6DQxxZoNupEoQ8V6Pd2LV6hDxXoj11avEIfW6BGLV6hDyEJkIs5XVp8FyTLvPUE6tDiFfpQgVx/avEKfQiZAN34199afA9MkPlg+OdfLRqrayBW5skN8J8e/z/cqMBJ0E3Q3Vs94If39sDNt6h4cutEvf8tk24j6kyOv33KQPCUO5KTyFnMSTK3k+WqnQ5fAAAAJXRFWHRkYXRlOmNyZWF0ZQAyMDIzLTA1LTEwVDEyOjEyOjI4KzAwOjAwxSqfkQAAACV0RVh0ZGF0ZTptb2RpZnkAMjAyMy0wNS0xMFQxMjoxMjoyOCswMDowMLR3Jy0AAAAodEVYdGRhdGU6dGltZXN0YW1wADIwMjMtMDUtMTBUMTI6MTM6MDYrMDA6MDAeuhHsAAAAAElFTkSuQmCC;" parent="1" vertex="1">
          <mxGeometry x="1393.8199999999997" y="719" width="22.18" height="25" as="geometry" />
        </mxCell>
        <mxCell id="q8AWcnEUlix8Nl2i11DQ-44" value="" style="rounded=0;whiteSpace=wrap;html=1;strokeWidth=4;" parent="1" vertex="1">
          <mxGeometry x="1410" y="483" width="30" height="30" as="geometry" />
        </mxCell>
        <mxCell id="q8AWcnEUlix8Nl2i11DQ-45" value="" style="verticalLabelPosition=bottom;verticalAlign=top;html=1;shape=mxgraph.basic.x;strokeColor=#FF0000;fillColor=#FF0000;" parent="1" vertex="1">
          <mxGeometry x="1415" y="488" width="20" height="20" as="geometry" />
        </mxCell>
        <mxCell id="q8AWcnEUlix8Nl2i11DQ-46" value="" style="rounded=0;whiteSpace=wrap;html=1;strokeWidth=4;" parent="1" vertex="1">
          <mxGeometry x="1410" y="162" width="30" height="30" as="geometry" />
        </mxCell>
        <mxCell id="q8AWcnEUlix8Nl2i11DQ-47" value="" style="verticalLabelPosition=bottom;verticalAlign=top;html=1;shape=mxgraph.basic.x;strokeColor=#FF0000;fillColor=#FF0000;" parent="1" vertex="1">
          <mxGeometry x="1415" y="167" width="20" height="20" as="geometry" />
        </mxCell>
        <mxCell id="q8AWcnEUlix8Nl2i11DQ-48" value="" style="rounded=0;whiteSpace=wrap;html=1;strokeWidth=4;" parent="1" vertex="1">
          <mxGeometry x="1854.0000000000002" y="162" width="30" height="30" as="geometry" />
        </mxCell>
        <mxCell id="q8AWcnEUlix8Nl2i11DQ-49" value="" style="verticalLabelPosition=bottom;verticalAlign=top;html=1;shape=mxgraph.basic.x;strokeColor=#FF0000;fillColor=#FF0000;" parent="1" vertex="1">
          <mxGeometry x="1859.0000000000002" y="167" width="20" height="20" as="geometry" />
        </mxCell>
        <mxCell id="q8AWcnEUlix8Nl2i11DQ-51" value="" style="rounded=1;whiteSpace=wrap;html=1;strokeWidth=1;fillColor=#E6E6E6;" parent="1" vertex="1">
          <mxGeometry x="1332" y="657.75" width="30" height="32" as="geometry" />
        </mxCell>
        <mxCell id="q8AWcnEUlix8Nl2i11DQ-65" value="" style="sketch=0;pointerEvents=1;shadow=0;dashed=0;html=1;strokeColor=none;fillColor=#505050;labelPosition=center;verticalLabelPosition=bottom;verticalAlign=top;outlineConnect=0;align=center;shape=mxgraph.office.concepts.calendar;" parent="1" vertex="1">
          <mxGeometry x="1342" y="668.75" width="10" height="9" as="geometry" />
        </mxCell>
        <mxCell id="lfgwCqjlpokFJ057kRz7-1" value="" style="endArrow=classic;html=1;rounded=0;strokeWidth=3;exitX=1;exitY=0.5;exitDx=0;exitDy=0;entryX=0;entryY=0.5;entryDx=0;entryDy=0;" edge="1" parent="1" source="q8AWcnEUlix8Nl2i11DQ-25" target="lfgwCqjlpokFJ057kRz7-5">
          <mxGeometry width="50" height="50" relative="1" as="geometry">
            <mxPoint x="1820" y="230" as="sourcePoint" />
            <mxPoint x="1940" y="227" as="targetPoint" />
            <Array as="points" />
          </mxGeometry>
        </mxCell>
        <mxCell id="lfgwCqjlpokFJ057kRz7-2" value="" style="endArrow=classic;html=1;rounded=0;strokeWidth=3;exitX=1;exitY=0.5;exitDx=0;exitDy=0;entryX=0;entryY=0.5;entryDx=0;entryDy=0;" edge="1" parent="1" source="q8AWcnEUlix8Nl2i11DQ-25" target="lfgwCqjlpokFJ057kRz7-6">
          <mxGeometry width="50" height="50" relative="1" as="geometry">
            <mxPoint x="1812" y="226.61" as="sourcePoint" />
            <mxPoint x="1940" y="270" as="targetPoint" />
            <Array as="points">
              <mxPoint x="1900" y="227" />
              <mxPoint x="1900" y="270" />
            </Array>
          </mxGeometry>
        </mxCell>
        <mxCell id="lfgwCqjlpokFJ057kRz7-4" value="" style="endArrow=classic;html=1;rounded=0;strokeWidth=3;exitX=1;exitY=0.5;exitDx=0;exitDy=0;entryX=0;entryY=0.5;entryDx=0;entryDy=0;" edge="1" parent="1" source="q8AWcnEUlix8Nl2i11DQ-25" target="lfgwCqjlpokFJ057kRz7-7">
          <mxGeometry width="50" height="50" relative="1" as="geometry">
            <mxPoint x="1812" y="227" as="sourcePoint" />
            <mxPoint x="1940" y="310" as="targetPoint" />
            <Array as="points">
              <mxPoint x="1900" y="227" />
              <mxPoint x="1900" y="310" />
            </Array>
          </mxGeometry>
        </mxCell>
        <mxCell id="lfgwCqjlpokFJ057kRz7-5" value="&lt;font face=&quot;Tahoma&quot; style=&quot;font-size: 21px;&quot;&gt;Turismo&lt;/font&gt;" style="text;html=1;strokeColor=none;fillColor=none;align=center;verticalAlign=middle;whiteSpace=wrap;rounded=0;fontStyle=1" vertex="1" parent="1">
          <mxGeometry x="1940" y="217" width="90" height="20" as="geometry" />
        </mxCell>
        <mxCell id="lfgwCqjlpokFJ057kRz7-6" value="&lt;font face=&quot;Tahoma&quot; style=&quot;font-size: 21px;&quot;&gt;Furgoneta&lt;/font&gt;" style="text;html=1;strokeColor=none;fillColor=none;align=center;verticalAlign=middle;whiteSpace=wrap;rounded=0;fontStyle=1" vertex="1" parent="1">
          <mxGeometry x="1940" y="260" width="110" height="20" as="geometry" />
        </mxCell>
        <mxCell id="lfgwCqjlpokFJ057kRz7-7" value="&lt;font face=&quot;Tahoma&quot; style=&quot;font-size: 21px;&quot;&gt;Autobus&lt;/font&gt;" style="text;html=1;strokeColor=none;fillColor=none;align=center;verticalAlign=middle;whiteSpace=wrap;rounded=0;fontStyle=1" vertex="1" parent="1">
          <mxGeometry x="1940" y="301.75" width="90" height="16.93" as="geometry" />
        </mxCell>
      </root>
    </mxGraphModel>
  </diagram>
</mxfile>
